<svg width="4438" height="1150" xmlns="http://www.w3.org/2000/svg" xmlns:xlink="http://www.w3.org/1999/xlink" xml:space="preserve" overflow="hidden"><defs><filter id="fx0" x="-10%" y="-10%" width="120%" height="120%" filterUnits="userSpaceOnUse" primitiveUnits="userSpaceOnUse"><feComponentTransfer color-interpolation-filters="sRGB"><feFuncR type="discrete" tableValues="0 0"/><feFuncG type="discrete" tableValues="0 0"/><feFuncB type="discrete" tableValues="0 0"/><feFuncA type="linear" slope="0.4" intercept="0"/></feComponentTransfer><feGaussianBlur stdDeviation="6.11111 6.11111"/></filter><filter id="fx1" x="-10%" y="-10%" width="120%" height="120%" filterUnits="userSpaceOnUse" primitiveUnits="userSpaceOnUse"><feComponentTransfer color-interpolation-filters="sRGB"><feFuncR type="discrete" tableValues="0 0"/><feFuncG type="discrete" tableValues="0 0"/><feFuncB type="discrete" tableValues="0 0"/><feFuncA type="linear" slope="0.4" intercept="0"/></feComponentTransfer><feGaussianBlur stdDeviation="6.11111 6.11111"/></filter><clipPath id="clip2"><rect x="-9" y="705" width="4438" height="1150"/></clipPath><linearGradient x1="2200" y1="714" x2="2200" y2="1826" gradientUnits="userSpaceOnUse" spreadMethod="reflect" id="fill3"><stop offset="0" stop-color="#0880F8"/><stop offset="0.14" stop-color="#0880F8"/><stop offset="0.9" stop-color="#EEF2FB"/><stop offset="1" stop-color="#FFFFFF"/></linearGradient><clipPath id="clip4"><rect x="77" y="66" width="1438" height="472"/></clipPath></defs><g clip-path="url(#clip2)" transform="translate(9 -705)"><g filter="url(#fx0)" transform="translate(-10 704)"><g><rect x="19.7227" y="19.7227" width="4400" height="1112" fill="#FF0000"/></g></g><rect x="0" y="714" width="4400" height="1112" fill="url(#fill3)"/><g clip-path="url(#clip4)" filter="url(#fx1)" transform="translate(2088 981)"><g><path d="M101.12-97.792 101.12 20.992 137.6 20.992 137.6-97.792ZM3.2-37.504C3.712-1.408 19.584 17.536 50.432 17.536 81.792 17.536 97.792-2.176 97.792-39.424 97.792-76.672 81.92-96.256 50.432-96.256 19.584-96.256 3.712-77.312 3.2-41.344L37.76-38.784C38.016-56.704 41.984-66.56 50.432-66.56 59.136-66.56 63.232-56.704 63.232-39.424 63.232-22.784 59.136-12.928 50.432-12.928 41.984-12.928 38.016-22.144 37.76-37.504ZM157.242-16 157.242 20.992 285.242 20.992 285.242-5.248 193.722-5.248 193.722-16ZM147.002-21.12 174.522-19.84C174.522-27.136 174.65-33.536 174.906-39.168 177.85-40.576 181.562-41.344 185.146-41.344 188.858-41.344 190.01-40.192 190.01-37.12L190.01-19.84 217.53-21.12 217.53-44.16 222.138-44.16 222.138-14.208 249.658-14.208 249.658-97.792 222.138-97.792 222.138-71.04 216.89-71.04 216.89-94.976 147.642-94.976 147.642-70.656 152.506-70.656C148.282-59.904 147.002-46.464 147.002-21.12ZM178.746-64.256C179.386-66.432 180.154-68.608 180.922-70.656L215.098-70.656 215.098-57.472C211.77-63.744 204.858-66.176 192.826-66.176 188.09-66.176 183.354-65.536 178.746-64.256ZM254.266-9.728 282.682-9.728 282.682-97.792 254.266-97.792Z" transform="matrix(1 0 0 1 279.842 186)"/><path d="M98.56-97.792 98.56 20.992 133.12 20.992 133.12-26.24 142.08-26.24 142.08-58.24 133.12-58.24 133.12-97.792ZM3.84-23.68C3.84 5.76 13.568 16.256 44.544 16.256L93.312 16.256 93.312-11.904 90.368-11.904C94.72-36.736 94.208-72.32 88.96-94.976L56.96-93.696C58.496-84.992 59.52-76.544 60.16-68.224L37.12-68.224 37.12-94.976 3.84-94.976ZM37.12-23.68 37.12-40.704 60.672-40.704C60.288-31.232 59.264-21.76 57.856-11.904L48.896-11.904C39.296-11.904 37.12-14.464 37.12-23.68ZM145.722-31.872 145.722-3.712 195.642-3.712 195.642 20.992 235.322 20.992 235.322-3.712 285.242-3.712 285.242-31.872ZM150.586-90.88 153.146-62.72C159.162-63.104 164.666-63.488 170.042-63.744 169.274-56.832 167.866-48.128 165.946-38.4L202.938-36.352C205.114-46.848 206.778-56.96 207.546-65.792 216.89-66.304 224.186-66.432 229.946-66.432 239.418-66.432 241.466-64.896 241.466-58.496 241.466-53.12 240.57-48.128 238.01-37.12L275.386-35.072C278.842-48 280.378-61.056 280.378-69.888 280.378-91.264 267.578-95.872 225.85-95.872 205.242-95.872 178.618-94.208 150.586-90.88ZM386.164-97.792 386.164 20.992 420.724 20.992 420.724-26.24 429.684-26.24 429.684-58.24 420.724-58.24 420.724-97.792ZM290.164-93.184 291.444-62.976C293.364-63.104 295.156-63.232 297.076-63.488 295.028-48.768 294.004-37.632 294.004-24.32 294.004 5.888 304.5 16.256 334.708 16.256 352.116 16.256 366.836 14.848 380.788 12.8L379.508-19.456C365.3-17.792 353.524-16.512 342.26-16.512 333.3-16.512 331.124-18.688 331.124-27.008 331.124-38.016 332.02-50.944 333.556-64.896 348.148-64.896 362.612-64.256 378.228-62.976L379.508-93.184C349.044-96.384 320.628-96.384 290.164-93.184ZM541.87-97.792 541.87 20.992 570.286 20.992 570.286-97.792ZM433.838-37.248C434.222-0.512 445.87 17.92 469.806 17.92 491.694 17.92 503.214 2.56 505.39-28.16L509.742-28.16 509.742 20.352 537.262 20.352 537.262-97.792 509.742-97.792 509.742-58.88 504.494-58.88C500.91-83.712 489.518-96.256 469.806-96.256 445.87-96.256 434.222-77.824 433.838-41.088L463.278-38.528C463.406-56.448 465.582-68.48 469.806-68.48 474.03-68.48 476.334-58.88 476.334-39.552 476.334-20.224 474.03-10.624 469.806-10.624 465.582-10.624 463.534-19.84 463.278-37.248ZM676.968-97.792 676.968-58.24 668.392-58.24C664.424-71.296 655.976-76.16 640.616-76.16 635.24-76.16 629.096-75.392 622.952-73.856 625.128-81.024 627.944-87.936 631.528-95.616L596.328-95.616C584.04-73.856 580.328-57.088 580.328 15.104L614.888 16.384C614.888-9.472 615.4-27.904 616.808-42.752 620.648-43.776 623.976-44.16 626.664-44.16 634.088-44.16 636.52-41.472 636.52-33.664L636.52 16.256 671.08 14.976 671.08-27.52 676.968-27.52 676.968 20.992 711.528 20.992 711.528-97.792Z" transform="matrix(1 0 0 1 593.227 186)"/><path d="M1.92-26.752 1.92-1.152 51.84-1.152 51.84 20.992 91.52 20.992 91.52-1.152 141.44-1.152 141.44-26.752ZM8.064-57.856C8.064-39.04 18.432-31.872 45.184-31.872L135.296-31.872 134.016-56.832 131.2-56.832C134.656-63.488 135.296-67.072 135.296-72.704 135.296-88.448 119.296-95.872 85.76-95.872 72.96-95.872 59.52-94.464 44.544-91.648L44.544-95.104 8.064-95.104ZM44.544-66.944 44.544-68.736C54.656-70.784 64.768-71.68 73.088-71.68 91.776-71.68 98.176-68.352 98.176-62.08 98.176-60.288 98.048-58.496 97.536-56.832L57.856-56.832C50.048-56.832 44.544-57.984 44.544-66.944ZM194.234-24.32C215.738-24.32 231.482-32.128 238.138-45.568L247.482-45.568 247.482-16 281.402-16 281.402-97.792 247.482-97.792 247.482-74.368 239.29-74.368C233.402-89.344 217.146-98.048 194.234-98.048 166.202-98.048 147.002-85.376 147.002-63.232L180.922-60.672C180.922-67.968 186.298-72.576 194.234-72.576 202.554-72.576 207.674-68.352 207.674-61.696 207.674-54.912 202.554-50.56 194.234-50.56 186.682-50.56 182.074-54.4 181.05-59.392L147.002-59.392C147.002-38.4 166.074-24.32 194.234-24.32ZM157.242-1.92 167.226 21.632C184.378 19.84 206.01 13.824 221.242 5.632 236.474 13.824 258.106 19.84 275.258 21.632L285.242-1.92C265.786-6.784 250.81-12.16 232.506-21.12L209.978-21.12C191.674-12.16 176.698-6.784 157.242-1.92ZM388.724-97.792 388.724 20.992 425.204 20.992 425.204-97.792ZM290.804-37.504C291.316-1.408 307.188 17.536 338.036 17.536 369.396 17.536 385.396-2.176 385.396-39.424 385.396-76.672 369.524-96.256 338.036-96.256 307.188-96.256 291.316-77.312 290.804-41.344L325.364-38.784C325.62-56.704 329.588-66.56 338.036-66.56 346.74-66.56 350.836-56.704 350.836-39.424 350.836-22.784 346.74-12.928 338.036-12.928 329.588-12.928 325.62-22.144 325.364-37.504ZM437.55-94.08 438.83-72.192C440.238-72.32 441.518-72.32 442.926-72.448 441.902-67.968 441.39-63.488 441.39-59.008 441.39-43.392 452.398-38.528 487.47-38.528 512.686-38.528 550.19-39.552 567.342-40.576L566.062-63.872C531.118-62.72 506.926-62.208 489.902-62.208 482.606-62.208 480.558-63.616 480.558-68.864 480.558-70.784 480.686-72.32 481.07-74.112 508.078-74.88 531.886-74.24 564.782-72.192L566.062-94.08C525.102-97.664 478.51-97.664 437.55-94.08ZM433.326-16.128 572.846-16.128 572.846-35.328 433.326-35.328ZM438.83 20.992 568.622 20.992 568.622-3.968 476.59-3.968 476.59-12.928 438.83-12.928Z" transform="matrix(1 0 0 1 97.3794 494)"/><path d="M98.56-97.792 98.56 20.992 133.12 20.992 133.12-26.24 142.08-26.24 142.08-58.24 133.12-58.24 133.12-97.792ZM3.84-23.68C3.84 5.76 13.568 16.256 44.544 16.256L93.312 16.256 93.312-11.904 90.368-11.904C94.72-36.736 94.208-72.32 88.96-94.976L56.96-93.696C58.496-84.992 59.52-76.544 60.16-68.224L37.12-68.224 37.12-94.976 3.84-94.976ZM37.12-23.68 37.12-40.704 60.672-40.704C60.288-31.232 59.264-21.76 57.856-11.904L48.896-11.904C39.296-11.904 37.12-14.464 37.12-23.68ZM249.402-97.792 249.402-35.584 145.082-35.584 145.082-11.264 177.082-11.264 177.082 20.352 212.922 20.352 212.922-11.264 249.402-11.264 249.402-5.504 221.882-5.504 221.882 14.336 249.402 14.336 249.402 20.992 282.682 20.992 282.682-97.792ZM147.002-93.184 149.562-67.968 161.466-68.736C159.418-62.208 156.346-54.016 152.122-43.392L183.226-41.472C188.986-52.096 192.698-61.312 194.618-70.4 198.97-70.528 202.426-70.656 204.73-70.656 210.618-70.656 212.026-69.632 212.026-65.664 212.026-62.208 210.49-57.6 204.986-41.344L236.858-39.424C242.49-52.224 245.562-65.024 245.562-76.672 245.562-91.648 236.602-96.256 207.29-96.256 190.906-96.256 167.482-95.104 147.002-93.184ZM289.524-10.368 289.524 17.792 429.044 17.792 429.044-10.368 377.844-10.368 377.844-19.328 422.9-19.328 422.9-46.848 420.084-46.848C425.076-63.232 423.54-84.352 416.756-95.232L383.348-93.952C383.988-90.752 384.628-87.68 385.012-84.864L332.788-84.864 332.788-95.232 295.668-95.232 295.668-52.096C295.668-29.312 308.468-19.328 337.908-19.328L340.724-19.328 340.724-10.368ZM332.788-59.264 386.036-59.264C385.652-55.168 384.884-51.2 383.86-46.848L353.14-46.848C336.756-46.848 333.044-49.024 332.788-59.264ZM541.87-97.792 541.87 20.992 570.286 20.992 570.286-97.792ZM434.606 15.104 464.046 16.384C464.046-12.032 464.43-31.488 465.966-47.104 467.118-47.36 468.142-47.488 469.166-47.488 474.414-47.488 475.694-45.952 475.694-39.552L475.694 16.256 505.134 14.976 505.134-28.8 509.742-28.8 509.742 20.352 537.262 20.352 537.262-97.792 509.742-97.792 509.742-58.24 503.854-58.24C501.038-72.192 494.126-77.44 480.43-77.44 477.102-77.44 474.03-77.184 470.83-76.416 472.494-82.688 474.414-88.832 476.846-95.616L446.894-95.616C437.806-73.728 434.606-56.832 434.606 15.104ZM577.128-11.648 577.128 17.792 716.648 17.792 716.648-11.648 691.688-11.648 691.688-25.6C705.896-32.512 713.064-43.392 713.064-56.96 713.064-81.024 690.536-96.512 647.016-96.512 604.648-96.512 581.992-81.792 580.712-58.88L620.776-56.32C621.672-63.616 628.968-67.456 647.016-67.456 667.496-67.456 673.384-62.976 673.384-57.344 673.384-51.712 667.496-47.232 647.016-47.232 629.096-47.232 623.72-49.28 620.776-55.04L580.712-55.04C580.712-42.24 588.136-32 602.088-25.472L602.088-11.648ZM632.808-11.648 632.808-18.048C637.288-17.664 642.024-17.408 647.016-17.408 651.88-17.408 656.616-17.664 660.968-18.048L660.968-11.648Z" transform="matrix(1 0 0 1 698.369 494)"/><path d="M3.84-17.92 47.36-15.36 47.36-92.16 3.84-92.16ZM3.84 15.36 47.36 15.36 47.36-13.568 3.84-13.568Z" transform="matrix(1 0 0 1 1443.16 494)"/></g></g><text font-family="Partial Sans KR,Partial Sans KR_MSFontService,sans-serif" font-weight="400" font-size="128" transform="matrix(1 0 0 1 2358.12 1158)">이젠</text><text font-family="Partial Sans KR,Partial Sans KR_MSFontService,sans-serif" font-weight="400" font-size="128" transform="matrix(1 0 0 1 2671.5 1158)">바꾸다에서</text><text font-family="Partial Sans KR,Partial Sans KR_MSFontService,sans-serif" font-weight="400" font-size="128" transform="matrix(1 0 0 1 2175.66 1466)">무엇이든</text><text font-family="Partial Sans KR,Partial Sans KR_MSFontService,sans-serif" font-weight="400" font-size="128" transform="matrix(1 0 0 1 2776.65 1466)">바꿔보세요</text><text font-family="Partial Sans KR,Partial Sans KR_MSFontService,sans-serif" font-weight="400" font-size="128" transform="matrix(1 0 0 1 3521.44 1466)">!</text></g></svg>